<svg xmlns="http://www.w3.org/2000/svg" width="12" height="15" viewBox="0 0 12 15" fill="none"><script xmlns="" id="eppiocemhmnlbhjplcgkofciiegomcon"/><script xmlns=""/><script xmlns=""/>
<path opacity="1" d="M8.35714 3.73684C8.35714 4.95216 7.3223 5.97368 6 5.97368V6.97368C7.83361 6.97368 9.35714 5.54455 9.35714 3.73684H8.35714ZM6 5.97368C4.6777 5.97368 3.64286 4.95216 3.64286 3.73684H2.64286C2.64286 5.54455 4.16639 6.97368 6 6.97368V5.97368ZM3.64286 3.73684C3.64286 2.52152 4.6777 1.5 6 1.5V0.5C4.16639 0.5 2.64286 1.92913 2.64286 3.73684H3.64286ZM6 1.5C7.3223 1.5 8.35714 2.52152 8.35714 3.73684H9.35714C9.35714 1.92913 7.83361 0.5 6 0.5V1.5ZM3.85714 9.02632H8.14286V8.02632H3.85714V9.02632ZM8.14286 13.5H3.85714V14.5H8.14286V13.5ZM3.85714 13.5C2.53484 13.5 1.5 12.4785 1.5 11.2632H0.5C0.5 13.0709 2.02353 14.5 3.85714 14.5V13.5ZM10.5 11.2632C10.5 12.4785 9.46516 13.5 8.14286 13.5V14.5C9.97647 14.5 11.5 13.0709 11.5 11.2632H10.5ZM8.14286 9.02632C9.46516 9.02632 10.5 10.0478 10.5 11.2632H11.5C11.5 9.45545 9.97647 8.02632 8.14286 8.02632V9.02632ZM3.85714 8.02632C2.02353 8.02632 0.5 9.45545 0.5 11.2632H1.5C1.5 10.0478 2.53484 9.02632 3.85714 9.02632V8.02632Z" fill="#202020"/>
</svg>