<svg width="20" height="17" viewBox="0 0 20 17" fill="none" xmlns="http://www.w3.org/2000/svg">
<path d="M2.22222 0C0.996528 0 0 1.06504 0 2.375V3.5625H20V2.375C20 1.06504 19.0035 0 17.7778 0H2.22222ZM20 7.125H0V14.25C0 15.56 0.996528 16.625 2.22222 16.625H17.7778C19.0035 16.625 20 15.56 20 14.25V7.125ZM3.88889 11.875H6.11111C6.41667 11.875 6.66667 12.1422 6.66667 12.4688C6.66667 12.7953 6.41667 13.0625 6.11111 13.0625H3.88889C3.58333 13.0625 3.33333 12.7953 3.33333 12.4688C3.33333 12.1422 3.58333 11.875 3.88889 11.875ZM7.77778 12.4688C7.77778 12.1422 8.02778 11.875 8.33333 11.875H12.7778C13.0833 11.875 13.3333 12.1422 13.3333 12.4688C13.3333 12.7953 13.0833 13.0625 12.7778 13.0625H8.33333C8.02778 13.0625 7.77778 12.7953 7.77778 12.4688Z" fill="black"/>
</svg>
