<svg width="30" height="30" viewBox="0 0 30 30" fill="none" xmlns="http://www.w3.org/2000/svg">
<path d="M28.3334 13.3332C27.9258 10.4002 26.5652 7.6826 24.4611 5.599C22.3571 3.51539 19.6263 2.18137 16.6895 1.80242C13.7527 1.42348 10.7728 2.02064 8.20875 3.50191C5.64472 4.98318 3.63883 7.2664 2.50008 9.99984M1.66675 3.33317V9.99984H8.33341M1.66675 16.6665C2.07435 19.5995 3.43497 22.3171 5.53902 24.4007C7.64307 26.4843 10.3738 27.8183 13.3106 28.1972C16.2474 28.5762 19.2274 27.979 21.7914 26.4978C24.3554 25.0165 26.3613 22.7333 27.5001 19.9998M28.3334 26.6665V19.9998H21.6667" stroke="white" stroke-width="3.33333" stroke-linecap="round" stroke-linejoin="round"/>
</svg>
