<svg xmlns="http://www.w3.org/2000/svg" width="160" height="47.125" viewBox="0 0 160 47.125"><script xmlns="" id="eppiocemhmnlbhjplcgkofciiegomcon"/><script xmlns=""/><script xmlns=""/><defs><style>.a{fill:#b0ff44;}</style></defs><g transform="translate(-64.237 -63.525)"><rect class="a" width="7.184" height="45.448" transform="translate(163.126 64.41)"/><path class="a" d="M303.1,65.2v6.327h12.889v38.91h7.025V65.2Z" transform="translate(-112.978 -0.79)"/><path class="a" d="M187.483,69.36c-2.8-2.689-6.6-4.06-11.3-4.06H158.8v45.184h7.078V94.72h9.878c4.913,0,8.874-1.318,11.674-3.954A14.388,14.388,0,0,0,191.762,79.9a14.241,14.241,0,0,0-4.279-10.545M184.313,79.9a7.562,7.562,0,0,1-2.43,6.063,10.107,10.107,0,0,1-6.867,2.162h-9.244V71.89h9.667a9.329,9.329,0,0,1,6.444,2.162,7.26,7.26,0,0,1,2.43,5.852" transform="translate(-44.726 -0.837)"/><path class="a" d="M80.741,87.186,98.912,65.2h-8.4L75.089,83.811h0l-.211.264H71.973V65.2H65v32h6.973V90.4h3.011l2.958,3.691,13.1,16.4h8.082Z" transform="translate(-0.36 -0.79)"/><path class="a" d="M69.235,138.27a3.943,3.943,0,0,0-4.86,2.694,3.856,3.856,0,0,0,.37,2.958,3.964,3.964,0,0,0,2.377,1.849,3.317,3.317,0,0,0,1,.158,3.855,3.855,0,0,0,3.909-3.856,4.043,4.043,0,0,0-2.8-3.8" transform="translate(0 -35.279)"/><path class="a" d="M358.035,63.67a3.944,3.944,0,0,0-4.86,2.694,3.856,3.856,0,0,0,.37,2.958,4.014,4.014,0,0,0,2.324,1.849,3.318,3.318,0,0,0,1,.158,3.914,3.914,0,0,0,3.75-2.8,3.974,3.974,0,0,0-2.588-4.86" transform="translate(-136.537 0)"/></g></svg>